<svg width="65" height="65" viewBox="0 0 65 65" fill="none" xmlns="http://www.w3.org/2000/svg">
<path d="M0.5 32.313C0.5 14.6399 14.8269 0.312988 32.5 0.312988V0.312988C50.1731 0.312988 64.5 14.6399 64.5 32.313V32.313C64.5 49.9861 50.1731 64.313 32.5 64.313V64.313C14.8269 64.313 0.5 49.9861 0.5 32.313V32.313Z" fill="#166534"/>
<path d="M12.375 31.1705C12.375 30.583 12.7937 30.1068 13.3103 30.1068H51.1897C51.7062 30.1068 52.125 30.583 52.125 31.1705V38.35C52.125 38.9374 51.7062 39.4136 51.1897 39.4136H13.3103C12.7937 39.4136 12.375 38.9374 12.375 38.35V31.1705Z" fill="white"/>
<path fill-rule="evenodd" clip-rule="evenodd" d="M12.4873 41.1953C12.6551 40.972 12.9503 40.9459 13.1466 41.1368C14.1474 42.1102 15.0287 42.8182 16.4994 42.8693C17.1924 42.8934 17.735 42.5342 18.4069 42.0745C18.4168 42.0677 18.4268 42.0609 18.4368 42.0541C19.0729 41.6187 19.8357 41.0967 20.8294 41.1424C21.7338 41.1839 22.3421 41.6595 22.8537 42.0595L22.8593 42.064C23.3784 42.4698 23.8039 42.7998 24.4426 42.8663C25.2511 42.7447 25.7577 42.3862 26.3037 41.9997C26.3211 41.9873 26.3386 41.975 26.3562 41.9626C26.9315 41.5558 27.5705 41.1205 28.5596 41.1421C29.5032 41.1626 30.3093 41.6656 30.9458 42.0925C31.0189 42.1415 31.0891 42.1891 31.157 42.2352C31.3994 42.3995 31.612 42.5437 31.8178 42.6588C32.0805 42.8058 32.272 42.8691 32.4207 42.8691C32.5681 42.8691 32.7676 42.8028 33.0502 42.6472C33.2537 42.5351 33.4635 42.3988 33.6996 42.2453C33.7911 42.1858 33.8865 42.1238 33.987 42.0597C34.6724 41.6222 35.5389 41.1205 36.5274 41.1421C37.4704 41.1626 38.1314 41.662 38.6796 42.0762L38.7121 42.1007C39.2819 42.5309 39.7387 42.8618 40.3932 42.8691C41.0641 42.8766 41.5352 42.5395 42.1237 42.0998L42.1576 42.0745C42.7229 41.6519 43.405 41.142 44.3725 41.142C45.3285 41.142 45.9689 41.6362 46.5067 42.0512C46.5266 42.0666 46.5464 42.0818 46.566 42.0969C47.1199 42.5234 47.5982 42.8691 48.3564 42.8691C48.9629 42.8691 49.6956 42.5032 50.3232 42.0799C50.627 41.875 50.888 41.6694 51.0728 41.515C51.165 41.438 51.2377 41.3742 51.2867 41.3303C51.3112 41.3084 51.3297 41.2914 51.3418 41.2803L51.3549 41.2681L51.3578 41.2653M51.3578 41.2653C51.5562 41.0774 51.8511 41.1077 52.0165 41.3332C52.1819 41.5588 52.1552 41.8941 51.9568 42.0822L51.6573 41.6738C51.9568 42.0822 51.9568 42.0822 51.9568 42.0822L51.9544 42.0845L51.9493 42.0893C51.945 42.0933 51.939 42.099 51.9313 42.106C51.9159 42.1202 51.8939 42.1404 51.8657 42.1657C51.8093 42.2162 51.7281 42.2874 51.6265 42.3723C51.4236 42.5417 51.1368 42.7679 50.8003 42.9948C50.1474 43.4351 49.2296 43.9327 48.3564 43.9327C47.2933 43.9327 46.6095 43.4149 46.0417 42.9777L46.0366 42.9738C45.4675 42.5357 45.0387 42.2056 44.3725 42.2056C43.6997 42.2056 43.2275 42.5478 42.6373 42.9888L42.6144 43.0058C42.0453 43.4312 41.3596 43.9436 40.384 43.9327C39.4331 43.9221 38.7687 43.4203 38.2168 43.0035L38.1948 42.9868C37.6233 42.5554 37.1656 42.2198 36.5095 42.2055C35.797 42.19 35.1268 42.5519 34.4447 42.9872C34.3612 43.0406 34.276 43.0959 34.1902 43.1517C33.9439 43.3118 33.6924 43.4753 33.4578 43.6045C33.1418 43.7785 32.7856 43.9327 32.4207 43.9327C32.0573 43.9327 31.7111 43.7845 31.4049 43.6132C31.1619 43.4772 30.9061 43.3037 30.659 43.136C30.5955 43.0929 30.5326 43.0502 30.4706 43.0087C29.8326 42.5807 29.2159 42.2202 28.5417 42.2055C27.8431 42.1903 27.4045 42.4739 26.8499 42.8659C26.8261 42.8827 26.8021 42.8997 26.7779 42.9169C26.2302 43.3052 25.5741 43.7704 24.5594 43.9217C24.497 43.931 24.4311 43.933 24.3656 43.9264C23.4737 43.836 22.8698 43.3633 22.3692 42.9715C22.3559 42.9611 22.3426 42.9508 22.3295 42.9404C21.8132 42.5368 21.4032 42.2333 20.7916 42.2052C20.1008 42.1734 19.5594 42.5273 18.8891 42.9859C18.8751 42.9955 18.8611 43.0051 18.847 43.0147C18.2149 43.4475 17.4565 43.9668 16.4708 43.9325C14.6739 43.87 13.5868 42.9645 12.5387 41.9451C12.3424 41.7542 12.3194 41.4185 12.4873 41.1953" fill="white"/>
<path fill-rule="evenodd" clip-rule="evenodd" d="M12.4873 44.3862C12.6551 44.163 12.9503 44.1368 13.1466 44.3277C14.1474 45.3011 15.0287 46.0091 16.4994 46.0602C17.1924 46.0843 17.735 45.7251 18.4069 45.2654C18.4168 45.2586 18.4268 45.2518 18.4368 45.245C19.0729 44.8096 19.8357 44.2876 20.8294 44.3333C21.7338 44.3749 22.3421 44.8504 22.8537 45.2504L22.8593 45.2549C23.3784 45.6607 23.8039 45.9907 24.4426 46.0573C25.2511 45.9356 25.7577 45.5771 26.3037 45.1906C26.3211 45.1783 26.3386 45.1659 26.3562 45.1535C26.9315 44.7467 27.5705 44.3114 28.5596 44.333C29.5032 44.3535 30.3093 44.8566 30.9458 45.2834C31.0189 45.3324 31.0891 45.38 31.157 45.4261C31.3994 45.5904 31.612 45.7346 31.8178 45.8497C32.0805 45.9967 32.272 46.06 32.4207 46.06C32.5681 46.06 32.7676 45.9937 33.0502 45.8381C33.2537 45.726 33.4635 45.5897 33.6996 45.4362C33.7911 45.3767 33.8865 45.3147 33.987 45.2506C34.6724 44.8131 35.5389 44.3114 36.5274 44.333C37.4704 44.3535 38.1314 44.8529 38.6796 45.2671L38.7121 45.2916C39.2819 45.7218 39.7387 46.0527 40.3932 46.06C41.0641 46.0675 41.5352 45.7304 42.1237 45.2907L42.1576 45.2654C42.7229 44.8428 43.405 44.3329 44.3725 44.3329C45.3285 44.3329 45.9689 44.8271 46.5067 45.2421C46.5266 45.2575 46.5464 45.2727 46.566 45.2879C47.1199 45.7143 47.5982 46.06 48.3564 46.06C48.9629 46.06 49.6956 45.6941 50.3232 45.2708C50.627 45.0659 50.888 44.8603 51.0728 44.7059C51.165 44.6289 51.2377 44.5651 51.2867 44.5212C51.3112 44.4993 51.3297 44.4823 51.3418 44.4712L51.3549 44.459L51.3578 44.4563M51.3578 44.4563C51.5562 44.2683 51.8511 44.2986 52.0165 44.5241C52.1819 44.7497 52.1552 45.085 51.9568 45.2731L51.6573 44.8647C51.9568 45.2731 51.9568 45.2731 51.9568 45.2731L51.9544 45.2755L51.9493 45.2803C51.945 45.2843 51.939 45.2899 51.9313 45.297C51.9159 45.3111 51.8939 45.3313 51.8657 45.3566C51.8093 45.4071 51.7281 45.4783 51.6265 45.5632C51.4236 45.7326 51.1368 45.9588 50.8003 46.1857C50.1474 46.626 49.2296 47.1236 48.3564 47.1236C47.2933 47.1236 46.6095 46.6058 46.0417 46.1687L46.0366 46.1647C45.4675 45.7266 45.0387 45.3965 44.3725 45.3965C43.6997 45.3965 43.2275 45.7387 42.6373 46.1797L42.6144 46.1968C42.0453 46.6221 41.3596 47.1345 40.384 47.1236C39.4331 47.113 38.7687 46.6112 38.2168 46.1944L38.1948 46.1778C37.6233 45.7463 37.1656 45.4107 36.5095 45.3964C35.797 45.3809 35.1268 45.7428 34.4447 46.1781C34.3612 46.2315 34.276 46.2868 34.1902 46.3426C33.9439 46.5027 33.6924 46.6662 33.4578 46.7954C33.1418 46.9694 32.7856 47.1236 32.4207 47.1236C32.0573 47.1236 31.7111 46.9754 31.4049 46.8041C31.1619 46.6681 30.9061 46.4946 30.659 46.3269C30.5955 46.2838 30.5326 46.2411 30.4706 46.1996C29.8326 45.7716 29.2159 45.4111 28.5417 45.3964C27.8431 45.3812 27.4045 45.6648 26.8499 46.0568C26.8261 46.0736 26.8021 46.0906 26.7779 46.1078C26.2302 46.4961 25.5741 46.9613 24.5594 47.1126C24.497 47.1219 24.4311 47.1239 24.3656 47.1173C23.4737 47.0269 22.8698 46.5542 22.3692 46.1625C22.3559 46.152 22.3426 46.1417 22.3295 46.1314C21.8132 45.7277 21.4032 45.4242 20.7916 45.3961C20.1008 45.3643 19.5594 45.7182 18.8891 46.1769C18.8751 46.1864 18.8611 46.196 18.847 46.2056C18.2149 46.6384 17.4565 47.1577 16.4708 47.1234C14.6739 47.0609 13.5868 46.1554 12.5387 45.136C12.3424 44.9451 12.3194 44.6094 12.4873 44.3862" fill="white"/>
<path d="M28.7426 30.9045C28.7426 32.0794 25.0786 33.0318 20.5588 33.0318C16.039 33.0318 12.375 32.0794 12.375 30.9045C12.375 29.7297 16.039 28.7773 20.5588 28.7773C25.0786 28.7773 28.7426 29.7297 28.7426 30.9045Z" fill="white"/>
<path d="M52.125 30.9045C52.125 32.0794 48.461 33.0318 43.9412 33.0318C39.4214 33.0318 35.7573 32.0794 35.7573 30.9045C35.7573 29.7297 39.4214 28.7773 43.9412 28.7773C48.461 28.7773 52.125 29.7297 52.125 30.9045Z" fill="white"/>
<path fill-rule="evenodd" clip-rule="evenodd" d="M29.3963 17.921C28.5127 18.1115 27.8505 18.9571 27.7592 20.0113L27.7436 20.1911L27.5842 20.2614C26.4105 20.7788 26.0417 22.0069 26.7036 23.1939C26.7764 23.3245 26.8327 23.4341 26.8286 23.4375C25.4835 24.5479 25.3219 26.2448 26.4624 27.2831C27.0302 27.8001 27.073 27.8065 29.8724 27.7963L32.0964 27.7881L32.2752 27.7307C34.0836 27.15 34.3131 24.6556 32.6702 23.4369C32.6662 23.4339 32.7225 23.3245 32.7953 23.1939C33.4353 22.0461 33.0972 20.8056 32.0054 20.2954L31.7782 20.1892L31.7637 19.9921C31.6651 18.6465 30.5511 17.6719 29.3963 17.921ZM32.8153 17.9072C32.54 17.9642 32.1705 18.1365 31.9792 18.2971L31.9114 18.3541L32.0414 18.5896C32.1855 18.8507 32.3055 19.1762 32.3669 19.4723C32.4072 19.6669 32.4074 19.6671 32.52 19.7321C33.5677 20.3362 34.0506 21.7399 33.6385 22.9832C33.6063 23.0803 33.5744 23.1798 33.5677 23.2041C33.5591 23.2349 33.6076 23.3115 33.7276 23.4566C34.7137 24.6494 34.6956 26.4256 33.6852 27.6189L33.5276 27.8051L34.4884 27.7956C35.5624 27.785 35.6139 27.7777 35.9705 27.5854C37.5241 26.7478 37.5636 24.5631 36.0454 23.4369C36.0413 23.4339 36.0977 23.3245 36.1705 23.1939C36.8317 22.0081 36.4624 20.778 35.2902 20.2615L35.1312 20.1915L35.1166 19.9933C35.0207 18.6844 33.9127 17.68 32.8153 17.9072ZM29.09 30.1415H27.7489V30.9045H35.7957V30.1415H34.4546V28.5646H33.1134V30.1415H30.4312V28.5646H29.09V30.1415Z" fill="white"/>
</svg>
