<svg width="64" height="64" viewBox="0 0 64 64" fill="none" xmlns="http://www.w3.org/2000/svg">
<path d="M0 32C0 14.3269 14.3269 0 32 0V0C49.6731 0 64 14.3269 64 32V32C64 49.6731 49.6731 64 32 64V64C14.3269 64 0 49.6731 0 32V32Z" fill="#005B32"/>
<path d="M28.0424 19.1282C27.8997 19.0443 27.7371 19 27.5716 19C27.406 19 27.2435 19.0443 27.1008 19.1282L10.5146 28.8847L11.4562 30.4855L27.5716 21.0058L43.6869 30.4865L44.6285 28.8856L38.7144 25.4072V20.8572C38.7144 20.6109 38.6166 20.3747 38.4425 20.2006C38.2683 20.0265 38.0321 19.9286 37.7859 19.9286H35.0001C34.7539 19.9286 34.5177 20.0265 34.3435 20.2006C34.1694 20.3747 34.0716 20.6109 34.0716 20.8572V22.6744L28.0424 19.1282Z" fill="white"/>
<path fill-rule="evenodd" clip-rule="evenodd" d="M27.5714 22.7141L14.5714 30.1427V43.1427H9.92857C9.6823 43.1427 9.44611 43.2405 9.27197 43.4146C9.09783 43.5888 9 43.825 9 44.0712C9 44.3175 9.09783 44.5537 9.27197 44.7278C9.44611 44.902 9.6823 44.9998 9.92857 44.9998H43.3571C43.6034 44.9998 43.8396 44.902 44.0137 44.7278C44.1879 44.5537 44.2857 44.3175 44.2857 44.0712C44.2857 43.825 44.1879 43.5888 44.0137 43.4146C43.8396 43.2405 43.6034 43.1427 43.3571 43.1427H40.5714V30.1427L27.5714 22.7141ZM31.2857 43.1427V32.9284H36.8571V43.1427H31.2857ZM28.5 32.9284H18.2857V38.4998H28.5V32.9284Z" fill="white"/>
<path d="M42.9185 33.0702C42.9185 32.6553 43.1979 32.2262 43.5657 32.0762C44.248 31.7981 45.1475 32.3213 45.1475 32.9963C45.1475 33.6981 44.7157 34.1084 43.9772 34.1084C43.4379 34.1084 42.9185 33.599 42.9185 33.0702Z" fill="white"/>
<path d="M52.4903 33.9932C51.7253 33.6614 51.7864 32.4011 52.5831 32.0762C52.9845 31.9126 53.5849 32.047 53.8862 32.368C54.7164 33.2524 53.6485 34.4956 52.4903 33.9932Z" fill="white"/>
<path d="M41.73 35.0631C41.8564 34.8828 42.1187 34.6594 42.3126 34.5667C42.5961 34.4311 42.9329 34.3981 44.031 34.398L45.3969 34.3978L46.3241 35.2766L47.2512 36.1555L48.555 36.1405L49.8588 36.1257L50.7726 35.2617L51.6864 34.3978L53.0523 34.398C54.6032 34.3981 54.9588 34.5009 55.3533 35.0631C55.5726 35.3755 55.5833 35.4774 55.5833 37.255V39.1192L55.3368 39.2729C55.1457 39.3921 55.0435 39.4028 54.8821 39.3206C54.6023 39.178 54.5732 39.013 54.5411 37.3876C54.5259 36.6184 54.5034 37.9313 54.4911 40.3051C54.4695 44.4776 54.4621 44.6274 54.2662 44.8139C53.9834 45.0831 53.614 45.0581 53.3617 44.7527C53.1615 44.5105 53.1517 44.3817 53.1517 42.004C53.1517 40.6319 53.1132 39.5094 53.0663 39.5094C52.9746 39.5094 52.8486 41.8721 52.848 43.6007C52.8478 44.4452 52.8145 44.689 52.68 44.8304C52.46 45.0619 52.0874 45.0547 51.8345 44.8139C51.638 44.6268 51.6318 44.4909 51.6297 40.2569L51.6274 35.8927L50.9108 36.5982L50.1941 37.3036L48.4939 37.2733L46.7937 37.2429L46.1269 36.5678L45.4602 35.8927L45.4558 40.2569C45.4515 44.4896 45.4454 44.6268 45.2488 44.8139C44.9863 45.0638 44.6212 45.0596 44.378 44.8039C44.2005 44.6173 44.1821 44.3963 44.1498 42.0552C44.13 40.6297 44.0743 39.5094 44.0231 39.5094C43.9711 39.5094 43.9317 40.5843 43.9317 42.004C43.9317 44.3817 43.9218 44.5105 43.7216 44.7527C43.4693 45.0581 43.0999 45.0831 42.8171 44.8139C42.6212 44.6274 42.6138 44.4776 42.5922 40.3051C42.58 37.9313 42.5575 36.6184 42.5423 37.3876C42.5101 39.013 42.4811 39.178 42.2012 39.3206C42.0398 39.4028 41.9376 39.3921 41.7465 39.2729L41.5 39.1192V37.255C41.5 35.4774 41.5107 35.3755 41.73 35.0631Z" fill="white"/>
</svg>
