<svg width="64" height="64" viewBox="0 0 64 64" fill="none" xmlns="http://www.w3.org/2000/svg">
<path d="M0 32C0 14.3269 14.3269 0 32 0V0C49.6731 0 64 14.3269 64 32V32C64 49.6731 49.6731 64 32 64V64C14.3269 64 0 49.6731 0 32V32Z" fill="#166534"/>
<path d="M45.3844 22.3656L39.1344 16.1156C39.0182 15.9996 38.8803 15.9076 38.7286 15.8448C38.5768 15.7821 38.4142 15.7499 38.25 15.75H25.75C25.087 15.75 24.4511 16.0134 23.9822 16.4822C23.5134 16.9511 23.25 17.587 23.25 18.25V20.75H20.75C20.087 20.75 19.4511 21.0134 18.9822 21.4822C18.5134 21.9511 18.25 22.587 18.25 23.25V45.75C18.25 46.413 18.5134 47.0489 18.9822 47.5178C19.4511 47.9866 20.087 48.25 20.75 48.25H38.25C38.913 48.25 39.5489 47.9866 40.0178 47.5178C40.4866 47.0489 40.75 46.413 40.75 45.75V43.25H43.25C43.913 43.25 44.5489 42.9866 45.0178 42.5178C45.4866 42.0489 45.75 41.413 45.75 40.75V23.25C45.7501 23.0858 45.7179 22.9232 45.6552 22.7714C45.5924 22.6197 45.5004 22.4818 45.3844 22.3656ZM33.25 42H25.75C25.4185 42 25.1005 41.8683 24.8661 41.6339C24.6317 41.3995 24.5 41.0815 24.5 40.75C24.5 40.4185 24.6317 40.1005 24.8661 39.8661C25.1005 39.6317 25.4185 39.5 25.75 39.5H33.25C33.5815 39.5 33.8995 39.6317 34.1339 39.8661C34.3683 40.1005 34.5 40.4185 34.5 40.75C34.5 41.0815 34.3683 41.3995 34.1339 41.6339C33.8995 41.8683 33.5815 42 33.25 42ZM33.25 37H25.75C25.4185 37 25.1005 36.8683 24.8661 36.6339C24.6317 36.3995 24.5 36.0815 24.5 35.75C24.5 35.4185 24.6317 35.1005 24.8661 34.8661C25.1005 34.6317 25.4185 34.5 25.75 34.5H33.25C33.5815 34.5 33.8995 34.6317 34.1339 34.8661C34.3683 35.1005 34.5 35.4185 34.5 35.75C34.5 36.0815 34.3683 36.3995 34.1339 36.6339C33.8995 36.8683 33.5815 37 33.25 37ZM43.25 40.75H40.75V28.25C40.7501 28.0858 40.7179 27.9232 40.6552 27.7714C40.5924 27.6197 40.5004 27.4818 40.3844 27.3656L34.1344 21.1156C34.0182 20.9996 33.8803 20.9076 33.7286 20.8448C33.5768 20.7821 33.4142 20.7499 33.25 20.75H25.75V18.25H37.7328L43.25 23.7672V40.75Z" fill="white"/>
</svg>
