<svg width="64" height="64" viewBox="0 0 64 64" fill="none" xmlns="http://www.w3.org/2000/svg">
<path d="M0 32C0 14.3269 14.3269 0 32 0V0C49.6731 0 64 14.3269 64 32V32C64 49.6731 49.6731 64 32 64V64C14.3269 64 0 49.6731 0 32V32Z" fill="#166534"/>
<path d="M43.6666 25.3333H20.3333C17.5666 25.3333 15.3333 27.5667 15.3333 30.3333V37C15.3333 38.8333 16.8333 40.3333 18.6666 40.3333H21.9999V43.6667C21.9999 45.5 23.4999 47 25.3333 47H38.6666C40.4999 47 41.9999 45.5 41.9999 43.6667V40.3333H45.3333C47.1666 40.3333 48.6666 38.8333 48.6666 37V30.3333C48.6666 27.5667 46.4333 25.3333 43.6666 25.3333ZM36.9999 43.6667H26.9999C26.0833 43.6667 25.3333 42.9167 25.3333 42V35.3333H38.6666V42C38.6666 42.9167 37.9166 43.6667 36.9999 43.6667ZM43.6666 32C42.7499 32 41.9999 31.25 41.9999 30.3333C41.9999 29.4167 42.7499 28.6667 43.6666 28.6667C44.5833 28.6667 45.3333 29.4167 45.3333 30.3333C45.3333 31.25 44.5833 32 43.6666 32ZM40.3333 17H23.6666C22.7499 17 21.9999 17.75 21.9999 18.6667V22C21.9999 22.9167 22.7499 23.6667 23.6666 23.6667H40.3333C41.2499 23.6667 41.9999 22.9167 41.9999 22V18.6667C41.9999 17.75 41.2499 17 40.3333 17Z" fill="white"/>
</svg>
