<svg width="65" height="65" viewBox="0 0 65 65" fill="none" xmlns="http://www.w3.org/2000/svg">
<path d="M0.5 32.313C0.5 14.6399 14.8269 0.312988 32.5 0.312988C50.1731 0.312988 64.5 14.6399 64.5 32.313C64.5 49.9861 50.1731 64.313 32.5 64.313C14.8269 64.313 0.5 49.9861 0.5 32.313Z" fill="#005B32"/>
<path d="M17.9641 12.1531C17.8967 12.128 17.8242 12.1196 17.7528 12.1284C17.6814 12.1372 17.6132 12.163 17.554 12.2037C17.4949 12.2444 17.4465 12.2986 17.4131 12.3619C17.3797 12.4251 17.3623 12.4954 17.3622 12.5668V19.7137C16.9505 19.3868 16.4407 19.2049 15.9133 19.1969C15.3859 19.1888 14.8708 19.355 14.4491 19.6693C14.0274 19.9835 13.7231 20.428 13.584 20.9327C13.445 21.4373 13.4792 21.9735 13.6812 22.4568C13.8832 22.9401 14.2416 23.343 14.6999 23.602C15.1581 23.8611 15.6903 23.9616 16.2125 23.8877C16.7346 23.8138 17.2172 23.5697 17.5842 23.1939C17.9511 22.8181 18.1816 22.3318 18.2393 21.8118C18.2487 21.7758 18.2535 21.7388 18.2535 21.7016V16.1512L22.4051 17.6952C22.4725 17.7203 22.545 17.7287 22.6164 17.7199C22.6879 17.7111 22.7561 17.6853 22.8152 17.6446C22.8744 17.6039 22.9227 17.5497 22.9561 17.4865C22.9895 17.4232 23.007 17.3529 23.007 17.2815V15.3561C23.0071 14.9661 22.8872 14.5854 22.6633 14.2648C22.4393 13.9442 22.1221 13.6991 21.7539 13.5622L17.9641 12.1531Z" fill="white"/>
<path d="M47.6446 40.1167C47.5772 40.0917 47.5047 40.0832 47.4333 40.0921C47.3619 40.1009 47.2937 40.1267 47.2345 40.1674C47.1754 40.208 47.127 40.2623 47.0936 40.3255C47.0602 40.3888 47.0427 40.4591 47.0427 40.5304V47.6774C46.6309 47.3504 46.1212 47.1686 45.5938 47.1605C45.0664 47.1525 44.5513 47.3187 44.1296 47.6329C43.7079 47.9472 43.4035 48.3917 43.2645 48.8963C43.1255 49.401 43.1597 49.9372 43.3617 50.4205C43.5637 50.9038 43.9221 51.3067 44.3804 51.5657C44.8386 51.8248 45.3708 51.9253 45.8929 51.8514C46.4151 51.7775 46.8977 51.5334 47.2646 51.1575C47.6316 50.7817 47.862 50.2955 47.9197 49.7755C47.9291 49.7395 47.9339 49.7024 47.934 49.6653V44.1148L52.0856 45.6589C52.153 45.6839 52.2255 45.6924 52.2969 45.6836C52.3683 45.6748 52.4365 45.6489 52.4957 45.6083C52.5548 45.5676 52.6032 45.5133 52.6366 45.4501C52.67 45.3869 52.6875 45.3166 52.6875 45.2452V43.3198C52.6876 42.9298 52.5677 42.5491 52.3437 42.2285C52.1198 41.9079 51.8025 41.6628 51.4344 41.5258L47.6446 40.1167Z" fill="white"/>
<path fill-rule="evenodd" clip-rule="evenodd" d="M22.3766 21.2567C21.7492 21.4041 21.3079 21.7679 20.9777 22.4104L20.6882 22.9738L20.6911 31.8698C20.6938 40.2278 20.7082 40.7967 20.9302 41.2774C21.2199 41.9045 21.5504 42.208 22.1915 42.4353C22.8671 42.6749 42.8281 42.7045 43.625 42.467C44.3089 42.2633 44.9425 41.6495 45.1182 41.02C45.3171 40.3072 45.3171 23.442 45.1182 22.7292C44.9331 22.066 44.2736 21.4572 43.5421 21.274C42.8633 21.1041 23.0957 21.088 22.3766 21.2567ZM25.8989 27.2052H22.9398L22.9028 25.8706C22.8825 25.1366 22.8959 24.4582 22.9326 24.3632C22.9843 24.2292 23.3246 24.1986 24.4491 24.2266L25.8989 24.2628V27.2052ZM37.3404 24.3998C37.642 24.6998 37.642 29.8385 37.3404 30.1385C37.1648 30.313 36.5821 30.3395 32.9089 30.3395C28.6844 30.3395 28.6795 30.3392 28.4794 30.0551C28.3147 29.8214 28.2791 29.3263 28.2791 27.2692C28.2791 25.2121 28.3147 24.717 28.4794 24.4832C28.6795 24.1991 28.6844 24.1989 32.9089 24.1989C36.5821 24.1989 37.1648 24.2253 37.3404 24.3998ZM42.8819 27.2052L41.5497 27.2418C40.6779 27.2657 40.1556 27.2272 40.038 27.1302C39.8002 26.934 39.7823 24.5815 40.0168 24.3484C40.1273 24.2385 40.5857 24.2017 41.5285 24.2269L42.8819 24.2628V27.2052ZM25.8989 33.3458H22.9398L22.9028 32.0113C22.8825 31.2772 22.8959 30.5988 22.9326 30.5039C22.9843 30.3698 23.3246 30.3392 24.4491 30.3672L25.8989 30.4034V33.3458ZM42.8819 33.3458L41.5497 33.3824C40.6779 33.4063 40.1556 33.3678 40.038 33.2708C39.8002 33.0746 39.7823 30.7221 40.0168 30.489C40.1273 30.3791 40.5857 30.3423 41.5285 30.3675L42.8819 30.4034V33.3458ZM36.891 33.4075C37.1333 33.4766 37.3781 33.606 37.435 33.6953C37.492 33.7845 37.5394 35.0479 37.5406 36.503C37.5423 38.7391 37.5113 39.1794 37.3404 39.3494C37.1648 39.5239 36.5821 39.5504 32.9089 39.5504C28.6844 39.5504 28.6795 39.5501 28.4794 39.266C28.3147 39.0323 28.2791 38.5372 28.2791 36.4801C28.2791 33.7902 28.3446 33.4891 28.9557 33.372C29.5603 33.256 36.4685 33.287 36.891 33.4075ZM25.8989 39.4864H22.9398L22.9028 38.1519C22.8825 37.4178 22.8959 36.7394 22.9326 36.6445C22.9843 36.5104 23.3246 36.4798 24.4491 36.5078L25.8989 36.544V39.4864ZM42.9968 36.6825C43.0397 36.7938 43.0748 37.42 43.0748 38.074C43.0748 38.9357 43.0253 39.304 42.8952 39.4115C42.7776 39.5084 42.2553 39.5469 41.3835 39.523L40.0514 39.4864L40.0144 38.1519C39.9941 37.4178 40.0069 36.7413 40.0426 36.6487C40.0909 36.5235 40.469 36.4801 41.5132 36.4801C42.6761 36.4801 42.9322 36.515 42.9968 36.6825Z" fill="white"/>
</svg>
