<svg width="65" height="65" viewBox="0 0 65 65" fill="none" xmlns="http://www.w3.org/2000/svg">
<path d="M0.5 32.313C0.5 14.6399 14.8269 0.312988 32.5 0.312988C50.1731 0.312988 64.5 14.6399 64.5 32.313C64.5 49.9861 50.1731 64.313 32.5 64.313C14.8269 64.313 0.5 49.9861 0.5 32.313Z" fill="#005B32"/>
<path fill-rule="evenodd" clip-rule="evenodd" d="M28.2402 16.323C28.0121 16.425 27.8055 16.6431 27.7177 16.8747C27.6809 16.9714 27.6515 17.4855 27.6515 18.0308C27.6515 18.8408 27.6686 19.0296 27.7489 19.1099C27.8359 19.1967 28.4069 19.2071 33.1047 19.2071C37.8883 19.2071 38.3723 19.1979 38.4644 19.106C38.5519 19.0185 38.563 18.8594 38.5463 17.9343C38.5251 16.7654 38.5053 16.6969 38.1002 16.3948C37.9313 16.2688 37.8692 16.267 33.1776 16.2535C29.3117 16.2424 28.3915 16.2554 28.2402 16.323ZM25.7615 21.2746C25.5334 21.3764 25.3268 21.5944 25.2389 21.8261C25.1928 21.9475 25.1728 25.9316 25.1728 34.9628V47.9252H26.8106C28.2206 47.9252 28.4619 47.9116 28.5462 47.8274C28.6334 47.7403 28.6423 47.3667 28.6281 44.4079L28.612 41.0861L28.3212 40.9473C27.889 40.741 27.6825 40.4372 27.6825 40.0078C27.6825 39.5832 27.8605 39.3001 28.2341 39.1306C28.4745 39.0216 28.7349 39.0154 33.1047 39.0154C37.4746 39.0154 37.7349 39.0216 37.9753 39.1306C38.3489 39.3001 38.5269 39.5832 38.5269 40.0078C38.5269 40.4372 38.3204 40.741 37.8883 40.9473L37.5974 41.0861L37.5813 44.4079C37.5671 47.3667 37.576 47.7403 37.6632 47.8274C37.8101 47.9741 40.7928 47.9742 40.9397 47.8276C41.0282 47.7391 41.036 46.5072 41.0215 34.7728L41.0056 21.8157L40.8778 21.6447C40.8076 21.5507 40.6731 21.4164 40.579 21.3462C40.4087 21.2192 40.373 21.2185 33.1776 21.2052C27.2463 21.1941 25.914 21.2066 25.7615 21.2746ZM29.186 24.3239C29.5719 24.6116 29.6035 24.7116 29.6035 25.6439C29.6035 26.58 29.5728 26.6755 29.1769 26.9708C28.9369 27.1497 28.3491 27.1497 28.1092 26.9708C27.7373 26.6935 27.6843 26.5569 27.6614 25.8187C27.6497 25.443 27.6578 25.0419 27.6793 24.9274C27.7273 24.672 27.9837 24.357 28.2371 24.2421C28.488 24.1285 28.9809 24.1709 29.186 24.3239ZM33.6477 24.3239C34.0336 24.6116 34.0652 24.7116 34.0652 25.6439C34.0652 26.58 34.0345 26.6755 33.6386 26.9708C33.3986 27.1497 32.8108 27.1497 32.5709 26.9708C32.199 26.6935 32.1459 26.5569 32.1231 25.8187C32.1114 25.443 32.1195 25.0419 32.141 24.9274C32.1889 24.672 32.4454 24.357 32.6988 24.2421C32.9497 24.1285 33.4426 24.1709 33.6477 24.3239ZM38.1094 24.3239C38.4953 24.6116 38.5269 24.7116 38.5269 25.6439C38.5269 26.58 38.4962 26.6755 38.1002 26.9708C37.8603 27.1497 37.2725 27.1497 37.0325 26.9708C36.6607 26.6935 36.6076 26.5569 36.5848 25.8187C36.5731 25.443 36.5812 25.0419 36.6027 24.9274C36.6506 24.672 36.9071 24.357 37.1605 24.2421C37.4114 24.1285 37.9043 24.1709 38.1094 24.3239ZM17.8265 27.7116C17.5771 27.8201 17.3166 28.1363 17.2721 28.3845C17.2525 28.4941 17.2444 32.7944 17.2541 37.9405C17.2719 47.2805 17.2722 47.2976 17.3997 47.4682C17.47 47.5622 17.6044 47.6965 17.6985 47.7667C17.8638 47.89 17.9548 47.8948 20.4304 47.9117C22.7121 47.9273 23.002 47.9184 23.0905 47.8299C23.1808 47.7397 23.1898 46.8264 23.1898 37.7749C23.1898 28.8066 23.1802 27.8094 23.0925 27.7217C23.0071 27.6365 22.6883 27.6248 20.5053 27.6269C18.5757 27.6288 17.973 27.6478 17.8265 27.7116ZM43.1189 27.7198C43.0286 27.81 43.0196 28.7233 43.0196 37.7749C43.0196 46.8264 43.0286 47.7397 43.1189 47.8299C43.2074 47.9184 43.4973 47.9273 45.7791 47.9117C48.2546 47.8948 48.3456 47.89 48.5109 47.7667C48.605 47.6965 48.7395 47.5622 48.8097 47.4682C48.9375 47.2973 48.9375 47.2959 48.9375 37.7749C48.9375 28.2539 48.9375 28.2524 48.8097 28.0816C48.7395 27.9875 48.605 27.8532 48.5109 27.7831C48.3456 27.6597 48.2546 27.6549 45.7791 27.638C43.4973 27.6224 43.2074 27.6314 43.1189 27.7198ZM29.186 29.2753C29.5719 29.563 29.6035 29.663 29.6035 30.5953C29.6035 31.5314 29.5728 31.6269 29.1769 31.9222C28.9369 32.1011 28.3491 32.1011 28.1092 31.9222C27.7373 31.6449 27.6843 31.5083 27.6614 30.7701C27.6497 30.3944 27.6578 29.9933 27.6793 29.8788C27.7273 29.6234 27.9837 29.3084 28.2371 29.1935C28.488 29.0799 28.9809 29.1223 29.186 29.2753ZM33.6477 29.2753C34.0336 29.563 34.0652 29.663 34.0652 30.5953C34.0652 31.5314 34.0345 31.6269 33.6386 31.9222C33.3986 32.1011 32.8108 32.1011 32.5709 31.9222C32.199 31.6449 32.1459 31.5083 32.1231 30.7701C32.1114 30.3944 32.1195 29.9933 32.141 29.8788C32.1889 29.6234 32.4454 29.3084 32.6988 29.1935C32.9497 29.0799 33.4426 29.1223 33.6477 29.2753ZM38.1094 29.2753C38.4953 29.563 38.5269 29.663 38.5269 30.5953C38.5269 31.5314 38.4962 31.6269 38.1002 31.9222C37.8603 32.1011 37.2725 32.1011 37.0325 31.9222C36.6607 31.6449 36.6076 31.5083 36.5848 30.7701C36.5731 30.3944 36.5812 29.9933 36.6027 29.8788C36.6506 29.6234 36.9071 29.3084 37.1605 29.1935C37.4114 29.0799 37.9043 29.1223 38.1094 29.2753ZM20.7584 31.751C21.1443 32.0387 21.1759 32.1387 21.1759 33.071C21.1759 33.8405 21.1628 33.946 21.0481 34.0994C20.8053 34.4241 20.6073 34.5255 20.2154 34.5255C19.8236 34.5255 19.6256 34.4242 19.3827 34.0996C19.2755 33.9565 19.2515 33.8184 19.2338 33.2458C19.2221 32.8701 19.2302 32.469 19.2517 32.3545C19.2996 32.0991 19.5561 31.7841 19.8095 31.6692C20.0603 31.5556 20.5533 31.598 20.7584 31.751ZM46.5371 31.751C46.9229 32.0387 46.9545 32.1387 46.9545 33.071C46.9545 33.8405 46.9414 33.946 46.8267 34.0994C46.584 34.4241 46.3859 34.5255 45.994 34.5255C45.6023 34.5255 45.4043 34.4242 45.1613 34.0996C45.0542 33.9565 45.0301 33.8184 45.0124 33.2458C45.0007 32.8701 45.0088 32.469 45.0303 32.3545C45.0783 32.0991 45.3348 31.7841 45.5881 31.6692C45.839 31.5556 46.3319 31.598 46.5371 31.751ZM29.186 34.2267C29.5719 34.5144 29.6035 34.6144 29.6035 35.5467C29.6035 36.3162 29.5904 36.4217 29.4757 36.5751C29.233 36.8998 29.0349 37.0012 28.643 37.0012C28.2513 37.0012 28.0533 36.8999 27.8103 36.5753C27.7032 36.4322 27.6791 36.2941 27.6614 35.7215C27.6497 35.3458 27.6578 34.9447 27.6793 34.8302C27.7273 34.5748 27.9837 34.2598 28.2371 34.1449C28.488 34.0313 28.9809 34.0737 29.186 34.2267ZM33.6477 34.2267C34.0336 34.5144 34.0652 34.6144 34.0652 35.5467C34.0652 36.3162 34.0521 36.4217 33.9374 36.5751C33.6946 36.8998 33.4966 37.0012 33.1047 37.0012C32.7129 37.0012 32.515 36.8999 32.272 36.5753C32.1648 36.4322 32.1408 36.2941 32.1231 35.7215C32.1114 35.3458 32.1195 34.9447 32.141 34.8302C32.1889 34.5748 32.4454 34.2598 32.6988 34.1449C32.9497 34.0313 33.4426 34.0737 33.6477 34.2267ZM38.1094 34.2267C38.4953 34.5144 38.5269 34.6144 38.5269 35.5467C38.5269 36.3162 38.5138 36.4217 38.3991 36.5751C38.1563 36.8998 37.9583 37.0012 37.5664 37.0012C37.1746 37.0012 36.9766 36.8999 36.7337 36.5753C36.6265 36.4322 36.6025 36.2941 36.5848 35.7215C36.5731 35.3458 36.5812 34.9447 36.6027 34.8302C36.6506 34.5748 36.9071 34.2598 37.1605 34.1449C37.4114 34.0313 37.9043 34.0737 38.1094 34.2267ZM20.7584 36.2072C21.1443 36.495 21.1759 36.595 21.1759 37.5273C21.1759 38.2967 21.1628 38.4023 21.0481 38.5556C20.8053 38.8804 20.6073 38.9818 20.2154 38.9818C19.8236 38.9818 19.6256 38.8805 19.3827 38.5558C19.2755 38.4127 19.2515 38.2747 19.2338 37.7021C19.2221 37.3263 19.2302 36.9253 19.2517 36.8108C19.2996 36.5554 19.5561 36.2404 19.8095 36.1255C20.0603 36.0119 20.5533 36.0543 20.7584 36.2072ZM46.5371 36.2072C46.9229 36.495 46.9545 36.595 46.9545 37.5273C46.9545 38.2967 46.9414 38.4023 46.8267 38.5556C46.584 38.8804 46.3859 38.9818 45.994 38.9818C45.6023 38.9818 45.4043 38.8805 45.1613 38.5558C45.0542 38.4127 45.0301 38.2747 45.0124 37.7021C45.0007 37.3263 45.0088 36.9253 45.0303 36.8108C45.0783 36.5554 45.3348 36.2404 45.5881 36.1255C45.839 36.0119 46.3319 36.0543 46.5371 36.2072ZM20.7584 40.6635C21.1443 40.9512 21.1759 41.0513 21.1759 41.9836C21.1759 42.753 21.1628 42.8585 21.0481 43.0119C20.8053 43.3366 20.6073 43.438 20.2154 43.438C19.8236 43.438 19.6256 43.3368 19.3827 43.0121C19.2755 42.869 19.2515 42.731 19.2338 42.1583C19.2221 41.7826 19.2302 41.3815 19.2517 41.267C19.2996 41.0117 19.5561 40.6966 19.8095 40.5817C20.0603 40.4681 20.5533 40.5106 20.7584 40.6635ZM46.5371 40.6635C46.9229 40.9512 46.9545 41.0513 46.9545 41.9836C46.9545 42.753 46.9414 42.8585 46.8267 43.0119C46.584 43.3366 46.3859 43.438 45.994 43.438C45.6023 43.438 45.4043 43.3368 45.1613 43.0121C45.0542 42.869 45.0301 42.731 45.0124 42.1583C45.0007 41.7826 45.0088 41.3815 45.0303 41.267C45.0783 41.0117 45.3348 40.6966 45.5881 40.5817C45.839 40.4681 46.3319 40.5106 46.5371 40.6635ZM30.7233 41.0905C30.6373 41.1765 30.626 41.5677 30.626 44.4593C30.626 47.3508 30.6373 47.742 30.7233 47.828C30.8084 47.9129 31.111 47.9252 33.1047 47.9252C35.0984 47.9252 35.401 47.9129 35.4861 47.828C35.5721 47.742 35.5834 47.3508 35.5834 44.4593C35.5834 41.5677 35.5721 41.1765 35.4861 41.0905C35.401 41.0057 35.0984 40.9933 33.1047 40.9933C31.111 40.9933 30.8084 41.0057 30.7233 41.0905Z" fill="white"/>
</svg>
