<svg width="64" height="64" viewBox="0 0 64 64" fill="none" xmlns="http://www.w3.org/2000/svg">
<path d="M0 32C0 14.3269 14.3269 0 32 0V0C49.6731 0 64 14.3269 64 32V32C64 49.6731 49.6731 64 32 64V64C14.3269 64 0 49.6731 0 32V32Z" fill="#166534"/>
<path fill-rule="evenodd" clip-rule="evenodd" d="M16.4167 27.5413V36.4587C16.4167 40.6643 16.4167 42.7653 17.7404 44.0725C18.9412 45.2587 20.8094 45.3668 24.3331 45.3778C24.3235 45.3137 24.3143 45.2496 24.3056 45.1853C24.0947 43.638 24.0947 41.6727 24.0947 39.2325V39.1353C24.0947 38.3965 24.7016 37.797 25.4514 37.797C26.1994 37.797 26.8062 38.3965 26.8062 39.1353C26.8062 41.6947 26.8081 43.4803 26.9914 44.8278C27.1711 46.1368 27.4956 46.8317 27.9961 47.3248C28.4966 47.8198 29.1987 48.1407 30.5242 48.3148C31.8882 48.4982 33.6977 48.5 36.2919 48.5H38.0977C40.6919 48.5 42.4996 48.4963 43.8654 48.3167C45.1909 48.1407 45.8931 47.818 46.3917 47.3248C46.8922 46.8298 47.2186 46.1368 47.3964 44.8278C47.5797 43.4822 47.5834 41.6947 47.5834 39.1353V24.8647C47.5834 22.3035 47.5797 20.5197 47.3964 19.1722C47.2186 17.8632 46.8922 17.1683 46.3936 16.6752C45.8931 16.1802 45.1909 15.8593 43.8636 15.6852C42.5014 15.5 40.6937 15.5 38.0996 15.5H36.2937C33.6996 15.5 31.8901 15.5037 30.5261 15.6833C29.2006 15.8593 28.4984 16.182 27.9979 16.6752C27.4974 17.1702 27.1729 17.8632 26.9932 19.1722C26.8099 20.5178 26.8081 22.3035 26.8081 24.8647C26.8081 25.6035 26.2012 26.203 25.4514 26.203C25.2745 26.2042 25.0992 26.1705 24.9353 26.1039C24.7715 26.0373 24.6224 25.939 24.4965 25.8147C24.3707 25.6904 24.2706 25.5425 24.202 25.3795C24.1334 25.2165 24.0975 25.0415 24.0966 24.8647V24.7675C24.0966 22.3292 24.0966 20.362 24.3074 18.8147L24.3349 18.6222C20.8112 18.6332 18.9449 18.7413 17.7422 19.9275C16.4186 21.2347 16.4167 23.3375 16.4167 27.5413ZM34.5411 37.4047L39.0584 32.946C39.1841 32.8226 39.284 32.6754 39.3522 32.513C39.4203 32.3505 39.4555 32.1762 39.4555 32C39.4555 31.8238 39.4203 31.6495 39.3522 31.487C39.284 31.3246 39.1841 31.1774 39.0584 31.054L34.5411 26.5953C34.2854 26.3444 33.9414 26.2038 33.5832 26.2038C33.2249 26.2038 32.881 26.3444 32.6252 26.5953C32.4995 26.7187 32.3997 26.8659 32.3315 27.0284C32.2633 27.1908 32.2282 27.3652 32.2282 27.5413C32.2282 27.7175 32.2633 27.8919 32.3315 28.0543C32.3997 28.2167 32.4995 28.3639 32.6252 28.4873L34.8289 30.6617H21.8379C21.6609 30.6602 21.4853 30.6937 21.3213 30.7602C21.1572 30.8267 21.0079 30.925 20.8819 31.0493C20.7558 31.1736 20.6556 31.3216 20.5868 31.4847C20.5181 31.6479 20.4822 31.823 20.4812 32C20.4812 32.7388 21.0881 33.3383 21.8379 33.3383H34.8271L32.6234 35.5127C32.4977 35.6361 32.3978 35.7833 32.3297 35.9457C32.2615 36.1081 32.2264 36.2825 32.2264 36.4587C32.2264 36.6348 32.2615 36.8092 32.3297 36.9716C32.3978 37.1341 32.4977 37.2813 32.6234 37.4047C32.8791 37.6556 33.2231 37.7962 33.5813 37.7962C33.9396 37.7962 34.2854 37.6556 34.5411 37.4047Z" fill="white"/>
</svg>
