<svg width="65" height="65" viewBox="0 0 65 65" fill="none" xmlns="http://www.w3.org/2000/svg">
<path d="M0.5 32.313C0.5 14.6399 14.8269 0.312988 32.5 0.312988V0.312988C50.1731 0.312988 64.5 14.6399 64.5 32.313V32.313C64.5 49.9861 50.1731 64.313 32.5 64.313V64.313C14.8269 64.313 0.5 49.9861 0.5 32.313V32.313Z" fill="#166534"/>
<path d="M43.308 21.5254C43.347 21.0124 43.7729 20.6161 44.2852 20.6161H47.6143C48.1266 20.6161 48.5525 21.0124 48.5915 21.5254L49.5446 34.0731C49.588 34.6444 49.138 35.132 48.5673 35.132H43.3322C42.7615 35.132 42.3115 34.6444 42.3549 34.0731L43.308 21.5254Z" fill="white"/>
<path fill-rule="evenodd" clip-rule="evenodd" d="M49.625 34.4996C49.625 33.4125 48.7474 32.5313 47.6649 32.5313H17.8351C16.7526 32.5313 15.875 33.4125 15.875 34.4996V46.8442C15.875 47.9313 16.7526 48.8125 17.8351 48.8125H47.6649C48.7474 48.8125 49.625 47.9313 49.625 46.8442V34.4996ZM20.481 37.1003C19.9397 37.1003 19.5009 37.5409 19.5009 38.0844V39.8066C19.5009 40.3502 19.9397 40.7908 20.481 40.7908H26.3896C26.9309 40.7908 27.3697 40.3502 27.3697 39.8066V38.0844C27.3697 37.5409 26.9309 37.1003 26.3896 37.1003H20.481ZM29.3369 38.0844C29.3369 37.5409 29.7757 37.1003 30.3169 37.1003H36.2256C36.7669 37.1003 37.2056 37.5409 37.2056 38.0844V39.8066C37.2056 40.3502 36.7669 40.7908 36.2256 40.7908H30.3169C29.7757 40.7908 29.3369 40.3502 29.3369 39.8066V38.0844ZM40.6447 37.1003C40.1034 37.1003 39.6646 37.5409 39.6646 38.0844V39.8066C39.6646 40.3502 40.1034 40.7908 40.6447 40.7908H46.3074C46.8487 40.7908 47.2875 40.3502 47.2875 39.8066V38.0844C47.2875 37.5409 46.8487 37.1003 46.3074 37.1003H40.6447Z" fill="white"/>
<path d="M20.9427 28.1371L16.556 33.0056C16.393 33.1866 16.3027 33.4219 16.3027 33.6659V34.763C16.3027 35.3065 16.7415 35.7471 17.2828 35.7471H32.8649C33.16 35.7471 33.4394 35.6136 33.6255 35.3836L34.7046 34.05C34.8465 33.8746 34.924 33.6555 34.924 33.4294V28.6003C34.924 27.6436 33.7021 27.2494 33.1472 28.0271L31.1371 30.8446C30.5558 31.6593 29.2752 31.1819 29.3642 30.1836L29.5434 28.174C29.6245 27.2655 28.5375 26.7447 27.8852 27.3796L24.0401 31.1218C23.3528 31.7907 22.2161 31.1751 22.3952 30.231L22.6323 28.9815C22.8176 28.0044 21.6073 27.3995 20.9427 28.1371Z" fill="white"/>
<path d="M32.6415 18.3899C38.6426 14.4737 43.9546 16.5988 45.3697 18.4968C45.5808 18.78 45.3089 19.0927 44.9606 19.0396C34.6979 17.4749 37.6181 20.6447 32.3513 21.864C29.2717 22.3057 24.3161 21.2602 20.853 18.6385C20.4768 18.3537 20.7222 17.8156 21.1885 17.8832C24.598 18.3776 30.2986 19.2543 32.5482 18.4374C32.5813 18.4254 32.612 18.4092 32.6415 18.3899Z" fill="white"/>
</svg>
