<svg width="65" height="65" viewBox="0 0 65 65" fill="none" xmlns="http://www.w3.org/2000/svg">
<path d="M0.5 32.313C0.5 14.6399 14.8269 0.312988 32.5 0.312988C50.1731 0.312988 64.5 14.6399 64.5 32.313C64.5 49.9861 50.1731 64.313 32.5 64.313C14.8269 64.313 0.5 49.9861 0.5 32.313Z" fill="#166534"/>
<path d="M15.2662 30.0145L14.9763 31.2096C14.4327 31.4145 13.9641 31.7824 13.6333 32.2638C13.3024 32.7453 13.1251 33.3173 13.125 33.9034V45.7394C13.125 46.3224 13.3543 46.8815 13.7623 47.2937C14.1704 47.7059 14.7239 47.9375 15.301 47.9375H17.6445C18.2216 47.9375 18.7751 47.7059 19.1832 47.2937C19.5913 46.8815 19.8205 46.3224 19.8205 45.7394V43.5413H30.5334V45.7394C30.5334 46.3224 30.7626 46.8815 31.1707 47.2937C31.5788 47.7059 32.1323 47.9375 32.7094 47.9375H35.0528C35.63 47.9375 36.1834 47.7059 36.5915 47.2937C36.9996 46.8815 37.2289 46.3224 37.2289 45.7394V33.9034C37.2289 32.659 36.4455 31.5985 35.3495 31.1987L35.0147 30.0145H36.3919C36.6139 30.0145 36.8268 29.9254 36.9838 29.7669C37.1407 29.6083 37.2289 29.3933 37.2289 29.1691C37.2289 28.9448 37.1407 28.7298 36.9838 28.5712C36.8268 28.4127 36.6139 28.3236 36.3919 28.3236H34.5366L33.8731 25.9788C33.6232 25.0954 33.0953 24.3184 32.3693 23.7652C31.6432 23.212 30.7585 22.9128 29.8491 22.9129H20.2718C19.3352 22.913 18.4257 23.2304 17.6889 23.8145C16.952 24.3985 16.4305 25.2154 16.2076 26.1343L15.676 28.3236H13.9619C13.74 28.3236 13.5271 28.4127 13.3701 28.5712C13.2132 28.7298 13.125 28.9448 13.125 29.1691C13.125 29.3933 13.2132 29.6083 13.3701 29.7669C13.5271 29.9254 13.74 30.0145 13.9619 30.0145H15.2662ZM20.2711 24.6038H29.8504C30.396 24.6039 30.9267 24.7835 31.3622 25.1154C31.7977 25.4473 32.1143 25.9135 32.2642 26.4434L33.5604 31.029H16.7433L17.8326 26.5367C17.9663 25.9854 18.2792 25.4952 18.7213 25.1448C19.1634 24.7943 19.7092 24.6038 20.2711 24.6038ZM32.2072 43.5413H35.555V45.7394C35.555 45.8739 35.5021 46.0029 35.4079 46.0981C35.3137 46.1932 35.186 46.2466 35.0528 46.2466H32.7094C32.5762 46.2466 32.4485 46.1932 32.3543 46.0981C32.2601 46.0029 32.2072 45.8739 32.2072 45.7394V43.5413ZM14.7989 45.7394V43.5413H18.1466V45.7394C18.1466 45.8739 18.0937 46.0029 17.9996 46.0981C17.9054 46.1932 17.7777 46.2466 17.6445 46.2466H15.301C15.1679 46.2466 15.0401 46.1932 14.946 46.0981C14.8518 46.0029 14.7989 45.8739 14.7989 45.7394ZM18.4814 37.7924C18.1263 37.7924 17.7857 37.6499 17.5345 37.3962C17.2834 37.1425 17.1423 36.7985 17.1423 36.4397C17.1423 36.081 17.2834 35.7369 17.5345 35.4832C17.7857 35.2295 18.1263 35.087 18.4814 35.087C18.8366 35.087 19.1772 35.2295 19.4283 35.4832C19.6794 35.7369 19.8205 36.081 19.8205 36.4397C19.8205 36.7985 19.6794 37.1425 19.4283 37.3962C19.1772 37.6499 18.8366 37.7924 18.4814 37.7924ZM33.2116 36.4397C33.2116 36.7985 33.0705 37.1425 32.8194 37.3962C32.5682 37.6499 32.2276 37.7924 31.8725 37.7924C31.5173 37.7924 31.1767 37.6499 30.9256 37.3962C30.6744 37.1425 30.5334 36.7985 30.5334 36.4397C30.5334 36.081 30.6744 35.7369 30.9256 35.4832C31.1767 35.2295 31.5173 35.087 31.8725 35.087C32.2276 35.087 32.5682 35.2295 32.8194 35.4832C33.0705 35.7369 33.2116 36.081 33.2116 36.4397ZM22.6661 37.7924H27.6878C27.9097 37.7924 28.1226 37.8815 28.2796 38.04C28.4365 38.1986 28.5247 38.4136 28.5247 38.6378C28.5247 38.862 28.4365 39.0771 28.2796 39.2356C28.1226 39.3942 27.9097 39.4832 27.6878 39.4832H22.6661C22.4442 39.4832 22.2313 39.3942 22.0743 39.2356C21.9174 39.0771 21.8292 38.862 21.8292 38.6378C21.8292 38.4136 21.9174 38.1986 22.0743 38.04C22.2313 37.8815 22.4442 37.7924 22.6661 37.7924Z" fill="white"/>
<path fill-rule="evenodd" clip-rule="evenodd" d="M43.6428 19.5564H45.9509C46.563 19.5564 47.1501 19.8009 47.5829 20.2363C48.0158 20.6716 48.2589 21.262 48.2589 21.8777V22.6515C48.2589 23.2671 48.0158 23.8576 47.5829 24.2929C47.1501 24.7282 46.563 24.9728 45.9509 24.9728H44.4122V26.5203C44.4122 26.7255 44.3311 26.9224 44.1869 27.0675C44.0426 27.2126 43.8469 27.2941 43.6428 27.2941C43.4388 27.2941 43.2431 27.2126 43.0988 27.0675C42.9546 26.9224 42.8735 26.7255 42.8735 26.5203V20.3301C42.8735 20.1249 42.9546 19.9281 43.0988 19.783C43.2431 19.6379 43.4388 19.5564 43.6428 19.5564ZM46.4949 23.1986C46.6392 23.0535 46.7202 22.8567 46.7202 22.6515V21.8777C46.7202 21.6725 46.6392 21.4757 46.4949 21.3305C46.3506 21.1854 46.1549 21.1039 45.9509 21.1039H44.4122V23.4252H45.9509C46.1549 23.4252 46.3506 23.3437 46.4949 23.1986Z" fill="white"/>
<path fill-rule="evenodd" clip-rule="evenodd" d="M40.9073 16.9915C42.1725 16.1413 43.6599 15.6875 45.1815 15.6875C46.1919 15.6875 47.1923 15.8876 48.1257 16.2765C49.0591 16.6654 49.9072 17.2353 50.6216 17.9538C51.336 18.6723 51.9027 19.5253 52.2894 20.4641C52.676 21.4029 52.875 22.4091 52.875 23.4252C52.875 24.9556 52.4238 26.4516 51.5784 27.7241C50.733 28.9966 49.5315 29.9883 48.1257 30.574C47.4198 30.8681 46.6782 31.0531 45.9259 31.1267V46.6891C45.9259 47.121 45.5778 47.4711 45.1484 47.4711C44.7189 47.4711 44.3708 47.121 44.3708 46.6891V31.1199C44.1399 31.0953 43.9096 31.0601 43.6806 31.0143C42.1882 30.7157 40.8174 29.9788 39.7414 28.8966C38.6655 27.8145 37.9328 26.4358 37.6359 24.9348C37.339 23.4338 37.4914 21.878 38.0737 20.4641C38.656 19.0502 39.6421 17.8418 40.9073 16.9915ZM41.7621 28.5722C42.7743 29.2524 43.9642 29.6154 45.1815 29.6154C46.8139 29.6154 48.3794 28.9632 49.5336 27.8024C50.6879 26.6415 51.3363 25.067 51.3363 23.4252C51.3363 22.2009 50.9753 21.0041 50.299 19.9862C49.6227 18.9682 48.6615 18.1748 47.5369 17.7062C46.4122 17.2377 45.1747 17.1151 43.9808 17.354C42.7869 17.5928 41.6902 18.1824 40.8295 19.0481C39.9687 19.9138 39.3825 21.0168 39.145 22.2176C38.9075 23.4184 39.0294 24.663 39.4953 25.7941C39.9611 26.9252 40.75 27.892 41.7621 28.5722Z" fill="white"/>
</svg>
