<svg width="65" height="65" viewBox="0 0 65 65" fill="none" xmlns="http://www.w3.org/2000/svg">
<path d="M0.5 32.313C0.5 14.6399 14.8269 0.312988 32.5 0.312988C50.1731 0.312988 64.5 14.6399 64.5 32.313C64.5 49.9861 50.1731 64.313 32.5 64.313C14.8269 64.313 0.5 49.9861 0.5 32.313Z" fill="#005B32"/>
<path d="M36.7183 31.7141C36.889 31.6252 37 31.4508 37 31.2584V31.1813C37 30.8583 36.8441 30.5553 36.5813 30.3676L28.2479 24.4152C27.9002 24.1668 27.4332 24.1668 27.0855 24.4152L18.7521 30.3676C18.4893 30.5553 18.3334 30.8583 18.3334 31.1813V43C18.3334 43.5523 18.7811 44 19.3334 44H24C24.5523 44 25 43.5523 25 43V37C25 36.4477 25.4478 36 26 36H29.3334C29.8857 36 30.3334 36.4477 30.3334 37V43C30.3334 43.5523 30.7811 44 31.3334 44H31.7841C32.151 44 32.3947 43.6169 32.2654 43.2735C31.8825 42.2567 31.6667 41.1585 31.6667 40C31.6667 36.3921 33.7236 33.2733 36.7183 31.7141ZM45.7431 31.9664C46.514 32.4241 47.6667 31.9219 47.6667 31.0254V21C47.6667 20.4477 47.219 20 46.6667 20H31.3334C30.7811 20 30.3334 20.4477 30.3334 21V22.112C30.3334 22.435 30.4893 22.7381 30.7521 22.9258L39.6667 29.2933V30.1919C39.6667 30.4979 39.9391 30.7305 40.2437 30.7024C40.4932 30.6794 40.7445 30.6667 41 30.6667C42.7326 30.6667 44.3537 31.1413 45.7431 31.9664ZM39.6667 25.3333H42.3334V28H39.6667V25.3333Z" fill="white"/>
<path fill-rule="evenodd" clip-rule="evenodd" d="M41 33.3333C44.68 33.3333 47.6667 36.3199 47.6667 39.9999C47.6667 43.6799 44.68 46.6666 41 46.6666C37.32 46.6666 34.3334 43.6799 34.3334 39.9999C34.3334 36.3199 37.32 33.3333 41 33.3333ZM41.2836 41.3308V41.6009C41.2836 41.7944 41.3294 41.972 41.4211 42.1338C41.5128 42.2939 41.6474 42.4231 41.825 42.5215C42.0025 42.6182 42.2202 42.6666 42.478 42.6666C42.7339 42.6666 42.9497 42.6182 43.1254 42.5215C43.3029 42.4231 43.4376 42.2939 43.5292 42.1338C43.6209 41.972 43.6667 41.7944 43.6667 41.6009V41.3308C43.6667 41.1373 43.6209 40.9597 43.5292 40.7979C43.4395 40.6361 43.3068 40.5069 43.1311 40.4102C42.9554 40.3134 42.7377 40.2651 42.478 40.2651C42.2241 40.2651 42.0073 40.3143 41.8278 40.4127C41.6502 40.5094 41.5147 40.6387 41.4211 40.8004C41.3294 40.9605 41.2836 41.1373 41.2836 41.3308ZM41.951 41.6009V41.3308C41.951 41.1873 41.9911 41.0572 42.0713 40.9405C42.1515 40.8238 42.2871 40.7654 42.478 40.7654C42.6766 40.7654 42.8122 40.8238 42.8848 40.9405C42.9592 41.0572 42.9965 41.1873 42.9965 41.3308V41.6009C42.9965 41.7443 42.9583 41.8744 42.8819 41.9912C42.8055 42.1079 42.6709 42.1663 42.478 42.1663C42.2832 42.1663 42.1467 42.1079 42.0684 41.9912C41.9901 41.8744 41.951 41.7443 41.951 41.6009ZM38.3334 38.3989V38.6691C38.3334 38.8625 38.3792 39.0402 38.4709 39.2019C38.5625 39.362 38.6962 39.4913 38.8719 39.5897C39.0494 39.6864 39.2681 39.7348 39.5278 39.7348C39.7837 39.7348 39.9994 39.6864 40.1751 39.5897C40.3527 39.4913 40.4864 39.362 40.5761 39.2019C40.6678 39.0402 40.7136 38.8625 40.7136 38.6691V38.3989C40.7136 38.2055 40.6687 38.0279 40.579 37.8661C40.4892 37.7043 40.3565 37.5751 40.1808 37.4783C40.0052 37.3816 39.7875 37.3333 39.5278 37.3333C39.2738 37.3333 39.0571 37.3816 38.8776 37.4783C38.7 37.5751 38.5644 37.7043 38.4709 37.8661C38.3792 38.0279 38.3334 38.2055 38.3334 38.3989ZM39.0036 38.6691V38.3989C39.0036 38.2555 39.0428 38.1254 39.1211 38.0087C39.2013 37.8919 39.3368 37.8336 39.5278 37.8336C39.7245 37.8336 39.86 37.8919 39.9345 38.0087C40.009 38.1254 40.0462 38.2555 40.0462 38.3989V38.6691C40.0462 38.8125 40.0071 38.9426 39.9288 39.0593C39.8524 39.1761 39.7187 39.2344 39.5278 39.2344C39.333 39.2344 39.1965 39.1761 39.1182 39.0593C39.0418 38.9426 39.0036 38.8125 39.0036 38.6691ZM42.6384 37.4383L38.6055 42.5615H39.2901L43.323 37.4383H42.6384Z" fill="white"/>
</svg>
