<svg width="65" height="65" viewBox="0 0 65 65" fill="none" xmlns="http://www.w3.org/2000/svg">
<path d="M0.5 32.313C0.5 14.6399 14.8269 0.312988 32.5 0.312988V0.312988C50.1731 0.312988 64.5 14.6399 64.5 32.313V32.313C64.5 49.9861 50.1731 64.313 32.5 64.313V64.313C14.8269 64.313 0.5 49.9861 0.5 32.313V32.313Z" fill="#005B32"/>
<path d="M26.1573 13.579C26.1573 12.776 26.8116 12.125 27.6187 12.125H42.0385C42.8457 12.125 43.5 12.776 43.5 13.579C43.5 14.3821 42.8457 15.0331 42.0385 15.0331H27.6187C26.8116 15.0331 26.1573 14.3821 26.1573 13.579Z" fill="white"/>
<path d="M28.6905 14.6898C28.6905 14.1299 29.1467 13.676 29.7095 13.676H39.9478C40.5106 13.676 40.9668 14.1299 40.9668 14.6898C40.9668 15.0647 40.753 15.3987 40.3892 15.4964C39.6143 15.7044 37.9583 16.0024 34.8286 16.0024C31.699 16.0024 30.0429 15.7044 29.2681 15.4964C28.9043 15.3987 28.6905 15.0647 28.6905 14.6898Z" fill="white"/>
<path fill-rule="evenodd" clip-rule="evenodd" d="M31.007 13.3076C31.0072 13.3077 31.0074 13.3077 30.8351 14.059L31.0074 13.3077C31.4271 13.403 31.6897 13.8188 31.5939 14.2363C31.4981 14.6538 31.0803 14.915 30.6607 14.8198C30.6607 14.8198 30.6607 14.8198 30.6607 14.8198C30.6607 14.8198 30.6606 14.8198 30.6605 14.8198L30.6565 14.8189L30.6398 14.8152C30.6246 14.8118 30.6013 14.8067 30.5703 14.8002C30.5084 14.787 30.4162 14.7678 30.2981 14.7447C30.0617 14.6982 29.7223 14.6357 29.3147 14.5725C28.4959 14.4453 27.4188 14.3176 26.3558 14.306C25.2728 14.2943 24.2944 14.4052 23.6205 14.6941C23.2929 14.8346 23.0776 15.0002 22.9462 15.1759C22.8228 15.3409 22.7387 15.5601 22.7469 15.8861C22.7959 17.8367 22.8203 26.6958 22.8324 35.0492C22.8385 39.2298 22.8416 43.2893 22.8431 46.3035C22.8438 47.8107 22.8442 49.0565 22.8444 49.9256C22.8445 50.3601 22.8446 50.7005 22.8446 50.9322L22.8446 51.2867C22.8446 51.2869 22.8446 51.287 22.0652 51.287C21.2857 51.287 21.2857 51.2869 21.2857 51.2867L21.2857 50.9323C21.2857 50.7007 21.2856 50.3604 21.2855 49.9259C21.2853 49.057 21.285 47.8113 21.2842 46.3043C21.2827 43.2904 21.2796 39.2314 21.2735 35.0514C21.2613 26.6833 21.2369 17.8517 21.1885 15.9249C21.1724 15.2816 21.3471 14.7162 21.6953 14.2504C22.0355 13.7953 22.5044 13.4838 23.0035 13.2698C23.9829 12.8499 25.227 12.7427 26.3728 12.7552C27.5386 12.7678 28.6963 12.9067 29.5551 13.04C29.9864 13.107 30.3465 13.1733 30.5999 13.223C30.7267 13.2479 30.827 13.2687 30.8963 13.2835C30.931 13.2909 30.958 13.2967 30.9767 13.3008L30.9984 13.3057L31.0046 13.307L31.007 13.3076ZM22.0652 51.287H21.2857C21.2857 51.7153 21.6347 52.0625 22.0652 52.0625C22.4956 52.0625 22.8446 51.7153 22.8446 51.287H22.0652Z" fill="white"/>
<path fill-rule="evenodd" clip-rule="evenodd" d="M30.5159 16.8163C30.7098 16.9092 30.7913 17.1409 30.698 17.3339L29.4313 19.9511C29.338 20.1441 29.1051 20.2252 28.9111 20.1323C28.7172 20.0394 28.6357 19.8076 28.7291 19.6147L29.9957 16.9974C30.089 16.8045 30.3219 16.7234 30.5159 16.8163Z" fill="white"/>
<path fill-rule="evenodd" clip-rule="evenodd" d="M34.7228 16.778C34.938 16.7825 35.1088 16.9598 35.1042 17.1738L35.0426 20.078C35.038 20.2921 34.8599 20.462 34.6447 20.4575C34.4295 20.453 34.2588 20.2758 34.2633 20.0617L34.325 17.1575C34.3295 16.9434 34.5076 16.7735 34.7228 16.778Z" fill="white"/>
<path fill-rule="evenodd" clip-rule="evenodd" d="M38.7519 16.9568C38.95 16.873 39.1789 16.9648 39.2631 17.1619L40.4052 19.8353C40.4894 20.0324 40.397 20.26 40.199 20.3438C40.0009 20.4276 39.772 20.3357 39.6878 20.1386L38.5457 17.4653C38.4615 17.2682 38.5539 17.0405 38.7519 16.9568Z" fill="white"/>
</svg>
