<svg width="65" height="65" viewBox="0 0 65 65" fill="none" xmlns="http://www.w3.org/2000/svg">
<path d="M0.5 32.313C0.5 14.6399 14.8269 0.312988 32.5 0.312988V0.312988C50.1731 0.312988 64.5 14.6399 64.5 32.313V32.313C64.5 49.9861 50.1731 64.313 32.5 64.313V64.313C14.8269 64.313 0.5 49.9861 0.5 32.313V32.313Z" fill="#166534"/>
<path d="M22.614 33.7368C22.614 33.2572 23.0028 32.8684 23.4825 32.8684H42.205C42.6847 32.8684 43.0735 33.2572 43.0735 33.7368C43.0735 34.2165 42.6847 34.6053 42.205 34.6053H23.4825C23.0028 34.6053 22.614 34.2165 22.614 33.7368Z" fill="white"/>
<path d="M31.1066 34.6053H34.5809V47.7281C34.5809 48.1544 34.2352 48.5 33.8088 48.5H31.8787C31.4523 48.5 31.1066 48.1544 31.1066 47.7281V34.6053Z" fill="white"/>
<path fill-rule="evenodd" clip-rule="evenodd" d="M16.4375 18.2018C16.4375 16.7096 17.6473 15.5 19.1397 15.5H46.5478C48.0402 15.5 49.25 16.7096 49.25 18.2018V30.7456C49.25 32.2378 48.0402 33.4474 46.5478 33.4474H19.1397C17.6473 33.4474 16.4375 32.2378 16.4375 30.7456V18.2018ZM20.2978 21.8684C20.2978 21.0158 20.9891 20.3246 21.8419 20.3246H28.4044C29.2572 20.3246 29.9485 21.0158 29.9485 21.8684V27.2719C29.9485 28.1246 29.2572 28.8158 28.4044 28.8158H21.8419C20.9891 28.8158 20.2978 28.1246 20.2978 27.2719V21.8684ZM34.2914 20.9035C33.9183 20.9035 33.6158 21.2059 33.6158 21.5789C33.6158 21.952 33.9183 22.2544 34.2914 22.2544H44.5211C44.8942 22.2544 45.1967 21.952 45.1967 21.5789C45.1967 21.2059 44.8942 20.9035 44.5211 20.9035H34.2914ZM34.2914 23.977C33.9183 23.977 33.6158 24.2795 33.6158 24.6525C33.6158 25.0255 33.9183 25.3279 34.2914 25.3279H44.5211C44.8942 25.3279 45.1967 25.0255 45.1967 24.6525C45.1967 24.2795 44.8942 23.977 44.5211 23.977H34.2914ZM33.6158 27.7261C33.6158 27.353 33.9183 27.0506 34.2914 27.0506H44.5211C44.8942 27.0506 45.1967 27.353 45.1967 27.7261C45.1967 28.0991 44.8942 28.4015 44.5211 28.4015H34.2914C33.9183 28.4015 33.6158 28.0991 33.6158 27.7261Z" fill="white"/>
</svg>
