<svg width="65" height="65" viewBox="0 0 65 65" fill="none" xmlns="http://www.w3.org/2000/svg">
<path d="M0.5 32.313C0.5 14.6399 14.8269 0.312988 32.5 0.312988C50.1731 0.312988 64.5 14.6399 64.5 32.313C64.5 49.9861 50.1731 64.313 32.5 64.313C14.8269 64.313 0.5 49.9861 0.5 32.313Z" fill="#005B32"/>
<path d="M43.75 15.3125C44.2092 15.3126 44.6525 15.4793 44.9957 15.7811C45.3389 16.0829 45.5581 16.4988 45.6119 16.9498L45.625 17.1668V46.8353C45.6245 47.3079 45.4415 47.7625 45.1134 48.1061C44.7853 48.4498 44.337 48.6566 43.8599 48.6843C43.3828 48.712 42.913 48.5585 42.5466 48.2552C42.1801 47.9518 41.9446 47.5215 41.8881 47.0522L41.875 46.8353V37.5639H40C39.5407 37.5638 39.0975 37.3971 38.7543 37.0953C38.4111 36.7935 38.1919 36.3776 38.1381 35.9265L38.125 35.7096V24.5839C38.125 20.4859 40.9375 15.3125 43.75 15.3125ZM32.5 15.3125C32.9592 15.3126 33.4025 15.4793 33.7457 15.7811C34.0889 16.0829 34.3081 16.4988 34.3619 16.9498L34.375 17.1668V26.4382C34.3748 28.0827 33.8222 29.6805 32.8041 30.9808C31.7859 32.281 30.3599 33.2099 28.75 33.6217V46.8353C28.7495 47.3079 28.5665 47.7625 28.2384 48.1061C27.9103 48.4498 27.462 48.6566 26.9849 48.6843C26.5078 48.712 26.038 48.5585 25.6716 48.2552C25.3051 47.9518 25.0696 47.5215 25.0131 47.0522L25 46.8353V33.6217C23.454 33.2264 22.0758 32.3537 21.0658 31.1305C20.0559 29.9072 19.4668 28.3973 19.3844 26.8202L19.375 26.4382V17.1668C19.3755 16.6942 19.5585 16.2396 19.8866 15.8959C20.2147 15.5523 20.663 15.3454 21.1401 15.3177C21.6172 15.29 22.087 15.4436 22.4534 15.7469C22.8199 16.0502 23.0554 16.4805 23.1119 16.9498L23.125 17.1668V26.4382C23.125 27.0892 23.2983 27.7287 23.6274 28.2924C23.9566 28.8562 24.4299 29.3243 25 29.6498V17.1668C25.0005 16.6942 25.1835 16.2396 25.5116 15.8959C25.8397 15.5523 26.288 15.3454 26.7651 15.3177C27.2422 15.29 27.712 15.4436 28.0784 15.7469C28.4449 16.0502 28.6804 16.4805 28.7369 16.9498L28.75 17.1668L28.7519 29.6498C29.2751 29.3507 29.7175 28.9309 30.0414 28.4263C30.3652 27.9217 30.5609 27.3471 30.6119 26.7516L30.625 26.4382V17.1668C30.625 16.675 30.8225 16.2034 31.1742 15.8556C31.5258 15.5079 32.0027 15.3125 32.5 15.3125Z" fill="white"/>
</svg>
