<svg width="65" height="65" viewBox="0 0 65 65" fill="none" xmlns="http://www.w3.org/2000/svg">
<path d="M0.5 32.313C0.5 14.6399 14.8269 0.312988 32.5 0.312988V0.312988C50.1731 0.312988 64.5 14.6399 64.5 32.313V32.313C64.5 49.9861 50.1731 64.313 32.5 64.313V64.313C14.8269 64.313 0.5 49.9861 0.5 32.313V32.313Z" fill="#166534"/>
<path fill-rule="evenodd" clip-rule="evenodd" d="M26.458 12.9111C25.2997 13.1583 23.9014 13.5488 23.3503 13.7788C22.3537 14.195 22.3597 14.1982 24.5288 14.3986C26.829 14.611 29.2957 15.3387 31.5002 16.4561C33.009 17.2208 33.1347 17.7529 32.3317 19.9779C32.0165 20.8508 31.8444 22.3393 31.8583 24.0658L31.8807 26.7811L30.3375 28.1591C28.3707 29.9158 26.1921 31.0611 19.9887 33.5994C15.2601 35.5346 13.8546 36.2507 14.7861 36.2507C15.0066 36.2507 16.2072 35.8395 17.4545 35.3373C20.2161 34.2243 22.0862 33.6327 22.2687 33.814C22.5185 34.0621 19.7563 35.8398 16.8798 37.2828C14.1792 38.6373 12.5144 39.6696 12.995 39.6913C13.1162 39.6969 16.882 37.9217 21.3634 35.7469C28.2371 32.4109 31.749 30.9409 32.8912 30.9218C33.0134 30.9196 33.3899 31.5388 33.7278 32.2979C34.0657 33.0568 35.1229 34.5214 36.0772 35.5525C37.0315 36.5832 37.9034 37.7128 38.0152 38.0623C38.1333 38.4318 37.8958 39.531 37.4481 40.6894C37.0246 41.7851 36.1398 44.2222 35.4816 46.1055C34.8235 47.9889 33.8127 50.212 33.2351 51.0461C32.6576 51.8802 32.2641 52.5625 32.3607 52.5625C32.4573 52.5625 33.1347 52.2598 33.8661 51.89C35.7409 50.9417 39.2834 47.2828 41.7188 43.7792C44.4769 39.8117 44.8201 39.0868 45.038 36.7686L45.2237 34.7946L43.6776 33.6672C42.8272 33.0473 41.8659 32.2484 41.5416 31.8923C40.8248 31.1056 40.7458 28.8775 41.4112 28.2166C42.2124 27.421 46.7878 25.9028 48.4587 25.878L50.0376 25.8548L48.7883 25.4006C48.1015 25.1506 47.2271 24.6546 46.8453 24.2986C46.0122 23.521 44.3212 23.0934 42.0396 23.0834C40.6138 23.0771 40.2194 22.9388 39.4505 22.1749C38.0105 20.7442 37.9609 19.8972 39.1599 17.1873L40.2096 14.8149L39.0441 13.8142C38.1062 13.009 37.4992 12.774 35.938 12.6118C32.8641 12.2928 28.7465 12.4227 26.458 12.9111Z" fill="white"/>
</svg>
