<svg width="64" height="64" viewBox="0 0 64 64" fill="none" xmlns="http://www.w3.org/2000/svg">
<path d="M0 32C0 14.3269 14.3269 0 32 0V0C49.6731 0 64 14.3269 64 32V32C64 49.6731 49.6731 64 32 64V64C14.3269 64 0 49.6731 0 32V32Z" fill="#166534"/>
<path d="M15.75 19.8125C15.75 18.7351 16.178 17.7017 16.9399 16.9399C17.7017 16.178 18.7351 15.75 19.8125 15.75H36.6875C37.7649 15.75 38.7983 16.178 39.5601 16.9399C40.322 17.7017 40.75 18.7351 40.75 19.8125V35.75H48.25V42.625C48.25 44.1168 47.6574 45.5476 46.6025 46.6025C45.5476 47.6574 44.1168 48.25 42.625 48.25H21.375C19.8832 48.25 18.4524 47.6574 17.3975 46.6025C16.3426 45.5476 15.75 44.1168 15.75 42.625V19.8125ZM40.75 45.75H42.625C43.4538 45.75 44.2487 45.4208 44.8347 44.8347C45.4208 44.2487 45.75 43.4538 45.75 42.625V38.25H40.75V45.75ZM22 24.5C22 24.8315 22.1317 25.1495 22.3661 25.3839C22.6005 25.6183 22.9185 25.75 23.25 25.75H33.25C33.5815 25.75 33.8995 25.6183 34.1339 25.3839C34.3683 25.1495 34.5 24.8315 34.5 24.5C34.5 24.1685 34.3683 23.8505 34.1339 23.6161C33.8995 23.3817 33.5815 23.25 33.25 23.25H23.25C22.9185 23.25 22.6005 23.3817 22.3661 23.6161C22.1317 23.8505 22 24.1685 22 24.5ZM23.25 30.75C22.9185 30.75 22.6005 30.8817 22.3661 31.1161C22.1317 31.3505 22 31.6685 22 32C22 32.3315 22.1317 32.6495 22.3661 32.8839C22.6005 33.1183 22.9185 33.25 23.25 33.25H33.25C33.5815 33.25 33.8995 33.1183 34.1339 32.8839C34.3683 32.6495 34.5 32.3315 34.5 32C34.5 31.6685 34.3683 31.3505 34.1339 31.1161C33.8995 30.8817 33.5815 30.75 33.25 30.75H23.25ZM22 39.5C22 39.8315 22.1317 40.1495 22.3661 40.3839C22.6005 40.6183 22.9185 40.75 23.25 40.75H28.25C28.5815 40.75 28.8995 40.6183 29.1339 40.3839C29.3683 40.1495 29.5 39.8315 29.5 39.5C29.5 39.1685 29.3683 38.8505 29.1339 38.6161C28.8995 38.3817 28.5815 38.25 28.25 38.25H23.25C22.9185 38.25 22.6005 38.3817 22.3661 38.6161C22.1317 38.8505 22 39.1685 22 39.5Z" fill="white"/>
</svg>
